# Blender v2.78 (sub 0) OBJ File: 'onebyonecube.blend'
# www.blender.org
mtllib oneByOne.mtl
o Cube
v 5.000000 0.000000 0.000000
v 5.000000 0.000000 5.000000
v -0.000000 0.000000 5.000000
v 0.000001 0.000000 -0.000001
v 5.000001 5.000000 0.000001
v 4.999998 5.000000 5.000001
v -0.000001 5.000000 4.999999
v 0.000000 5.000000 0.000000
v 2.526940 1.804478 0.554099
v 2.526940 5.653551 0.554099
v 2.902399 1.804478 0.591078
v 2.902399 5.653551 0.591078
v 3.263428 1.804478 0.700595
v 3.263428 5.653551 0.700595
v 3.596155 1.804478 0.878442
v 3.596155 5.653551 0.878442
v 3.887793 1.804478 1.117782
v 3.887793 5.653551 1.117782
v 4.127133 1.804478 1.409420
v 4.127133 5.653551 1.409420
v 4.304980 1.804478 1.742147
v 4.304980 5.653551 1.742147
v 4.414496 1.804478 2.103176
v 4.414496 5.653551 2.103176
v 4.451476 1.804478 2.478635
v 4.451476 5.653551 2.478635
v 4.414497 1.804478 2.854093
v 4.414497 5.653551 2.854093
v 4.304980 1.804478 3.215122
v 4.304980 5.653551 3.215122
v 4.127133 1.804478 3.547850
v 4.127133 5.653551 3.547850
v 3.887793 1.804478 3.839487
v 3.887793 5.653551 3.839487
v 3.596155 1.804478 4.078828
v 3.596155 5.653551 4.078828
v 3.263428 1.804478 4.256674
v 3.263428 5.653551 4.256674
v 2.902398 1.804478 4.366191
v 2.902398 5.653551 4.366191
v 2.526940 1.804478 4.403171
v 2.526940 5.653551 4.403171
v 2.151481 1.804478 4.366191
v 2.151481 5.653551 4.366191
v 1.790451 1.804478 4.256674
v 1.790451 5.653551 4.256674
v 1.457724 1.804478 4.078827
v 1.457724 5.653551 4.078827
v 1.166087 1.804478 3.839487
v 1.166087 5.653551 3.839487
v 0.926746 1.804478 3.547849
v 0.926746 5.653551 3.547849
v 0.748900 1.804478 3.215121
v 0.748900 5.653551 3.215121
v 0.639384 1.804478 2.854091
v 0.639384 5.653551 2.854091
v 0.602404 1.804478 2.478633
v 0.602404 5.653551 2.478633
v 0.639384 1.804478 2.103174
v 0.639384 5.653551 2.103174
v 0.748902 1.804478 1.742145
v 0.748902 5.653551 1.742145
v 0.926748 1.804478 1.409418
v 0.926748 5.653551 1.409418
v 1.166090 1.804478 1.117780
v 1.166090 5.653551 1.117780
v 1.457727 1.804478 0.878440
v 1.457727 5.653551 0.878440
v 1.790455 1.804478 0.700594
v 1.790455 5.653551 0.700594
v 2.151485 1.804478 0.591078
v 2.151485 5.653551 0.591078
vn 0.0000 -1.0000 0.0000
vn 0.0000 1.0000 -0.0000
vn 1.0000 0.0000 0.0000
vn -0.0000 -0.0000 1.0000
vn -1.0000 -0.0000 -0.0000
vn 0.0000 0.0000 -1.0000
vn 0.0980 0.0000 -0.9952
vn 0.2903 0.0000 -0.9569
vn 0.4714 0.0000 -0.8819
vn 0.6344 0.0000 -0.7730
vn 0.7730 0.0000 -0.6344
vn 0.8819 0.0000 -0.4714
vn 0.9569 0.0000 -0.2903
vn 0.9952 0.0000 -0.0980
vn 0.9952 0.0000 0.0980
vn 0.9569 0.0000 0.2903
vn 0.8819 0.0000 0.4714
vn 0.7730 0.0000 0.6344
vn 0.6344 0.0000 0.7730
vn 0.4714 0.0000 0.8819
vn 0.2903 0.0000 0.9569
vn 0.0980 0.0000 0.9952
vn -0.0980 0.0000 0.9952
vn -0.2903 0.0000 0.9569
vn -0.4714 0.0000 0.8819
vn -0.6344 0.0000 0.7730
vn -0.7730 0.0000 0.6344
vn -0.8819 0.0000 0.4714
vn -0.9569 0.0000 0.2903
vn -0.9952 0.0000 0.0980
vn -0.9952 0.0000 -0.0980
vn -0.9569 0.0000 -0.2903
vn -0.8819 0.0000 -0.4714
vn -0.7730 0.0000 -0.6344
vn -0.6344 0.0000 -0.7730
vn -0.4714 0.0000 -0.8819
vn -0.2903 0.0000 -0.9569
vn -0.0980 0.0000 -0.9952
usemtl Material
s off
f 1//1 3//1 4//1
f 8//2 6//2 5//2
f 5//3 2//3 1//3
f 6//4 3//4 2//4
f 7//5 4//5 3//5
f 1//6 8//6 5//6
f 10//7 11//7 9//7
f 12//8 13//8 11//8
f 14//9 15//9 13//9
f 16//10 17//10 15//10
f 18//11 19//11 17//11
f 20//12 21//12 19//12
f 22//13 23//13 21//13
f 24//14 25//14 23//14
f 26//15 27//15 25//15
f 28//16 29//16 27//16
f 30//17 31//17 29//17
f 32//18 33//18 31//18
f 34//19 35//19 33//19
f 36//20 37//20 35//20
f 38//21 39//21 37//21
f 40//22 41//22 39//22
f 42//23 43//23 41//23
f 44//24 45//24 43//24
f 46//25 47//25 45//25
f 48//26 49//26 47//26
f 50//27 51//27 49//27
f 52//28 53//28 51//28
f 54//29 55//29 53//29
f 56//30 57//30 55//30
f 58//31 59//31 57//31
f 60//32 61//32 59//32
f 62//33 63//33 61//33
f 64//34 65//34 63//34
f 66//35 67//35 65//35
f 68//36 69//36 67//36
f 46//2 22//2 14//2
f 70//37 71//37 69//37
f 72//38 9//38 71//38
f 39//1 55//1 23//1
f 1//1 2//1 3//1
f 8//2 7//2 6//2
f 5//3 6//3 2//3
f 6//4 7//4 3//4
f 7//5 8//5 4//5
f 1//6 4//6 8//6
f 10//7 12//7 11//7
f 12//8 14//8 13//8
f 14//9 16//9 15//9
f 16//10 18//10 17//10
f 18//11 20//11 19//11
f 20//12 22//12 21//12
f 22//13 24//13 23//13
f 24//14 26//14 25//14
f 26//15 28//15 27//15
f 28//16 30//16 29//16
f 30//17 32//17 31//17
f 32//18 34//18 33//18
f 34//19 36//19 35//19
f 36//20 38//20 37//20
f 38//21 40//21 39//21
f 40//22 42//22 41//22
f 42//23 44//23 43//23
f 44//24 46//24 45//24
f 46//25 48//25 47//25
f 48//26 50//26 49//26
f 50//27 52//27 51//27
f 52//28 54//28 53//28
f 54//29 56//29 55//29
f 56//30 58//30 57//30
f 58//31 60//31 59//31
f 60//32 62//32 61//32
f 62//33 64//33 63//33
f 64//34 66//34 65//34
f 66//35 68//35 67//35
f 68//36 70//36 69//36
f 14//2 12//2 10//2
f 10//2 72//2 14//2
f 70//2 68//2 66//2
f 66//2 64//2 70//2
f 62//2 60//2 58//2
f 58//2 56//2 62//2
f 54//2 52//2 50//2
f 50//2 48//2 54//2
f 46//2 44//2 38//2
f 42//2 40//2 38//2
f 38//2 36//2 34//2
f 34//2 32//2 38//2
f 30//2 28//2 26//2
f 26//2 24//2 30//2
f 22//2 20//2 14//2
f 18//2 16//2 14//2
f 14//2 72//2 70//2
f 70//2 64//2 62//2
f 62//2 56//2 54//2
f 54//2 48//2 46//2
f 44//2 42//2 38//2
f 38//2 32//2 30//2
f 30//2 24//2 22//2
f 20//2 18//2 14//2
f 14//2 70//2 62//2
f 62//2 54//2 46//2
f 46//2 38//2 30//2
f 30//2 22//2 46//2
f 14//2 62//2 46//2
f 70//37 72//37 71//37
f 72//38 10//38 9//38
f 71//1 9//1 11//1
f 11//1 13//1 71//1
f 15//1 17//1 19//1
f 19//1 21//1 23//1
f 23//1 25//1 31//1
f 27//1 29//1 31//1
f 31//1 33//1 35//1
f 35//1 37//1 39//1
f 39//1 41//1 43//1
f 43//1 45//1 47//1
f 47//1 49//1 51//1
f 51//1 53//1 47//1
f 55//1 57//1 59//1
f 59//1 61//1 55//1
f 63//1 65//1 67//1
f 67//1 69//1 71//1
f 71//1 13//1 15//1
f 15//1 19//1 23//1
f 25//1 27//1 31//1
f 31//1 35//1 39//1
f 39//1 43//1 55//1
f 47//1 53//1 55//1
f 55//1 61//1 63//1
f 63//1 67//1 55//1
f 71//1 15//1 23//1
f 23//1 31//1 39//1
f 43//1 47//1 55//1
f 55//1 67//1 71//1
f 71//1 23//1 55//1
